<svg width="30" height="30" viewBox="0 0 30 30" fill="none" xmlns="http://www.w3.org/2000/svg">
<g id="&#60;Group&#62;">
<path id="&#60;Path&#62;" d="M26.3958 5.25564L25.5688 7.61486L24.7015 10.1051L24.6914 10.085C25.8512 12.3837 26.2243 15.0857 25.5184 17.7675C23.9855 23.5748 18.0455 27.0431 12.2365 25.5207C6.42761 23.9882 2.9584 18.0398 4.48122 12.2325C6.00405 6.42517 11.9542 2.95692 17.7631 4.4894C19.064 4.8322 20.2238 5.38671 21.2625 6.12271L23.8443 5.62868L26.3151 5.16491C24.409 2.96701 21.8374 1.29338 18.8119 0.496889C10.8045 -1.61027 2.59534 3.17873 0.497676 11.1839C-1.61007 19.1992 3.17018 27.3959 11.1877 29.5031C19.1951 31.6103 27.3942 26.8213 29.5019 18.8161C30.8029 13.8758 29.4818 8.86504 26.3958 5.25564Z" fill="#EC1C67"/>
<path id="&#60;Compound Path&#62;" fill-rule="evenodd" clip-rule="evenodd" d="M21.4947 16.7086C20.5568 20.2979 16.8758 22.4353 13.2956 21.4976C9.70539 20.5499 7.55729 16.88 8.50528 13.2908C9.44318 9.70158 13.1242 7.56417 16.7043 8.50181C20.2946 9.44952 22.4427 13.1194 21.4947 16.7086ZM17.6221 15.6903C18.0053 14.2385 17.138 12.7565 15.6858 12.3733C14.2436 12.0003 12.7611 12.8573 12.3779 14.3091C11.9947 15.7609 12.862 17.243 14.3142 17.6261C15.7564 18.0092 17.2388 17.1422 17.6221 15.6903Z" fill="#0CACA7"/>
</g>
</svg>
